<svg version="1.2" xmlns="http://www.w3.org/2000/svg" viewBox="0 0 2304 2304" width="2304" height="2304" fill="#ffffff">
	<title>nixos-logomark-white-flat-minimal</title>
	<path fill-rule="evenodd" d="m528 1401.4l128-221.7 560 970h-256l-128-221.7-128 221.7h-128l-64-110.9 192-332.5z"/>
	<path fill-rule="evenodd" d="m624 736.3h256l-560 970-128-221.7 128-221.7h-256l-64-110.9 64-110.9h384z"/>
	<path fill-rule="evenodd" d="m1248 486.9l128 221.7h-1120l128-221.7h256l-128-221.7 64-110.9h128l192 332.6z"/>
	<path fill-rule="evenodd" d="m1776 902.6l-128 221.7-560-970h256l128 221.7 128-221.7h128l64 110.9-192 332.5z"/>
	<path fill-rule="evenodd" d="m1680 1567.7h-256l560-970 128 221.7-128 221.7h256l64 110.9-64 110.9h-384z"/>
	<path fill-rule="evenodd" d="m1056 1817.1l-128-221.7h1120l-128 221.7h-256l128 221.7-64 110.9h-128l-192-332.6z"/>
</svg>
